<svg xmlns="http://www.w3.org/2000/svg" width="350" height="98" viewBox="0 0 350 98">
  <g fill="#FFF" fill-rule="nonzero">
    <path d="M30.839 76.037c-8.592-1.83-10.188 3.368-9.002 6.28a43.392 43.392 0 0 0 19.65 4.671c16.108 0 30.12-8.69 37.314-21.49-4.93 2.486-28.606 14.665-47.962 10.539zM67.606 21.627c-6.555-.215-26.663-19.614-47.138-7.308 1.181-.622 6.833-2.757 17.852 5.835 2.073 1.618 31.606 31.943 44.823 34.086a42.66 42.66 0 0 0 .775-8.087 42.382 42.382 0 0 0-11.663-29.268c.321 1.517.47 4.913-4.649 4.742zM77.778 61.505S64.57 58.679 28.28 30.885c-1.163-.888-14.165-11.675-26.97 4.848A42.169 42.169 0 0 0 0 46.184c0 2.973.313 5.875.9 8.677 6.11-8.455 42.648 20.953 76.878 6.644zM101.316 0h4.094v97.222h-4.094zM140.163 42.088c-1.165.423-2.456.634-3.874.634-3.165 0-5.374-.964-6.628-2.896-.657-1.03-1.032-2.371-1.12-4.022h-3.686c-.04 3.145.934 5.637 2.922 7.473 1.986 1.85 4.736 2.776 8.248 2.776 3.011 0 5.655-.694 7.93-2.082 2.275-1.388 3.413-3.692 3.413-6.918 0-2.589-.892-4.564-2.674-5.925-1.03-.779-2.495-1.394-4.393-1.844l-3.934-.93c-2.649-.634-4.348-1.164-5.1-1.585-1.146-.661-1.719-1.705-1.719-3.131 0-1.295.485-2.432 1.455-3.41.971-.978 2.565-1.467 4.782-1.467 2.747 0 4.693.761 5.84 2.279.618.835 1.022 2.03 1.21 3.587h3.686c0-3.237-1.033-5.594-3.098-7.065-2.066-1.475-4.575-2.211-7.53-2.211-3.211 0-5.691.84-7.445 2.517-1.753 1.68-2.628 3.825-2.628 6.442 0 2.418.89 4.235 2.674 5.45 1.033.701 2.788 1.34 5.272 1.923l3.801.893c2.063.489 3.578 1.063 4.545 1.724.956.675 1.432 1.804 1.432 3.389 0 2.112-1.126 3.58-3.381 4.4zM159.244 45.03c1.854 0 3.432-.548 4.73-1.641a7.042 7.042 0 0 0 1.647-2.012l-.04 3.086h3.279V23.538h-3.472v10.28c0 2.044-.231 3.652-.696 4.824-.852 2.188-2.454 3.283-4.807 3.283-1.641 0-2.76-.625-3.362-1.875-.325-.676-.489-1.549-.489-2.618V23.54h-3.549v14.224c0 1.787.284 3.212.852 4.28 1.052 1.99 3.019 2.985 5.907 2.985zM189.844 43.426c2.385-2.014 3.577-5.37 3.577-10.074 0-3.477-.828-6.153-2.48-8.028-1.652-1.872-3.663-2.81-6.033-2.81-1.602 0-2.992.403-4.175 1.209-.834.536-1.603 1.295-2.306 2.275v-2.86H175v30.078h3.505v-11.02c.77.98 1.466 1.674 2.093 2.077 1.067.709 2.39 1.067 3.969 1.067 2.005 0 3.765-.639 5.277-1.914zm-10.75-4.594c-.482-1.167-.723-2.584-.723-4.25 0-2.069.24-3.774.723-5.116.898-2.511 2.565-3.768 5-3.768 2.423 0 4.09 1.188 5.003 3.566.483 1.236.724 2.713.724 4.432 0 2.822-.545 4.94-1.631 6.356-1.087 1.417-2.452 2.126-4.094 2.126-2.425 0-4.092-1.114-5.002-3.346zM201.05 31.914c0-1.491.479-2.81 1.434-3.954.956-1.145 2.325-1.715 4.106-1.715a5.624 5.624 0 0 1 1.159.098v-3.729c-.38-.04-.65-.065-.807-.078a4.695 4.695 0 0 0-.333-.021c-1.4 0-2.637.509-3.711 1.521-1.075 1.015-1.749 1.874-2.024 2.582v-3.63h-3.36v21.018h3.536V31.914zM210.819 23.538h3.07v20.468h-3.07zM210.819 15.351h3.07v4.094h-3.07zM243.023 22.515c-1.338 0-2.544.273-3.619.815-1.074.543-2.007 1.378-2.802 2.503-.477-.916-1.009-1.61-1.59-2.08-1.034-.825-2.401-1.236-4.098-1.236-1.495 0-2.837.4-4.014 1.198-.689.47-1.459 1.225-2.306 2.256v-2.984h-3.541v21.019h3.58V32.859c0-2.708.552-4.58 1.662-5.613 1.105-1.034 2.334-1.55 3.686-1.55 1.486 0 2.498.49 3.043 1.471.345.655.516 1.696.516 3.12v13.719h3.64V31.778c0-2.17.508-3.72 1.522-4.65 1.01-.93 2.223-1.396 3.629-1.396 1.018 0 1.885.264 2.594.785.708.524 1.065 1.485 1.065 2.886v14.6h3.718V30.012c0-1.858-.28-3.337-.836-4.436-1.038-2.04-2.987-3.06-5.85-3.06zM269.406 37.597a6.3 6.3 0 0 1-1.323 2.496c-1.11 1.239-2.6 1.857-4.466 1.857-1.998 0-3.473-.655-4.427-1.965-.952-1.308-1.463-3.045-1.528-5.21h15.584c0-2.144-.108-3.708-.318-4.689-.24-1.43-.716-2.682-1.433-3.756-.74-1.124-1.822-2.042-3.238-2.751-1.42-.708-2.886-1.064-4.394-1.064-2.997 0-5.422 1.067-7.278 3.2-1.855 2.13-2.784 4.906-2.784 8.324 0 3.473.921 6.173 2.765 8.099 1.84 1.928 4.09 2.891 6.737 2.891 1.087 0 2.06-.106 2.919-.318 1.602-.37 2.946-1.087 4.03-2.145.648-.608 1.236-1.395 1.764-2.354.527-.962.835-1.832.931-2.615h-3.541zm-9.898-10.183c1.11-1.186 2.486-1.78 4.127-1.78 2.286 0 3.921.861 4.9 2.584.53.928.865 2.165 1.011 3.717h-11.802c.065-1.828.654-3.337 1.764-4.521zM289.488 27.66c.383.784.577 1.817.577 3.098v13.248h3.648V30.522c0-2.118-.291-3.747-.876-4.886-1.063-2.08-3.11-3.121-6.138-3.121-1.382 0-2.638.27-3.767.805-1.13.536-2.2 1.42-3.209 2.65v-2.985h-3.407v21.019h3.588V32.995c0-1.376.09-2.432.27-3.17.179-.74.567-1.456 1.166-2.149.745-.863 1.608-1.439 2.591-1.726.544-.17 1.242-.254 2.091-.254 1.67.001 2.828.656 3.466 1.963zM300.785 40.407c0 1.37.31 2.481.926 3.338.618.857 1.788 1.284 3.514 1.284.537 0 1.032-.027 1.491-.08.46-.052.9-.137 1.325-.258v-2.85a8.495 8.495 0 0 1-1.293.08c-.673 0-1.15-.072-1.44-.218-.522-.253-.78-.75-.78-1.494V26.282h3.513v-2.93h-3.514v-5.954h-3.742v5.955h-2.978v2.93h2.978v14.124zM325.724 25.238c-1.858-1.814-4.131-2.723-6.818-2.723-3 0-5.39 1.053-7.17 3.158-1.782 2.106-2.672 4.933-2.672 8.485 0 3.315.844 5.956 2.534 7.922 1.69 1.967 3.969 2.95 6.84 2.95 3.442 0 5.98-1.112 7.616-3.335 1.636-2.223 2.455-5.039 2.455-8.446.002-3.523-.926-6.194-2.785-8.01zm-2.19 14.06c-.862 1.78-2.448 2.673-4.764 2.673-2.11 0-3.649-.752-4.617-2.25-.972-1.499-1.457-3.373-1.457-5.623 0-2.34.485-4.34 1.457-5.996.968-1.656 2.52-2.484 4.657-2.484 2.406 0 4.101.972 5.083 2.92.62 1.236.93 2.84.93 4.813 0 2.18-.43 4.162-1.29 5.946zM347.962 33.813c-.87-.578-2.588-1.177-5.149-1.797l-2.356-.574c-1.03-.249-1.81-.538-2.336-.867-.916-.551-1.374-1.285-1.374-2.204 0-.842.348-1.516 1.044-2.028.696-.513 1.721-.767 3.075-.767 2.029 0 3.456.464 4.279 1.395a4.07 4.07 0 0 1 .855 2.18h3.304c.027-1.367-.402-2.645-1.281-3.83-1.405-1.87-3.697-2.806-6.874-2.806-2.43 0-4.366.62-5.803 1.859-1.44 1.238-2.16 2.857-2.16 4.856 0 1.701.764 3.03 2.292 3.992.855.553 2.188 1.054 3.99 1.5l2.826.712c1.514.38 2.529.716 3.04 1.005.804.474 1.206 1.164 1.206 2.075 0 1.198-.504 2.082-1.507 2.657-1.007.572-2.17.857-3.492.857-2.224 0-3.784-.572-4.685-1.719-.489-.631-.786-1.54-.892-2.726h-3.362c.091 2.108.789 3.876 2.095 5.304 1.304 1.43 3.524 2.142 6.662 2.142 2.914 0 5.08-.684 6.506-2.053 1.422-1.368 2.135-2.996 2.135-4.878.004-1.946-.675-3.373-2.038-4.285zM135.963 61.741c-.436-.423-1.027-.758-1.775-.999-.748-.244-1.698-.362-2.849-.362h-6.485v16.374h1.677v-7.232h3.797c.822 0 1.64-.067 2.454-.203.814-.137 1.541-.374 2.182-.715a4.354 4.354 0 0 0 1.566-1.399c.403-.59.605-1.343.605-2.251 0-.607-.087-1.189-.26-1.744a3.486 3.486 0 0 0-.912-1.469zm-.863 4.79c-.238.43-.575.77-1.011 1.021-.436.252-.966.423-1.59.512-.625.093-1.332.136-2.121.136h-3.847v-6.504h4.34c1.595 0 2.758.267 3.49.796.73.528 1.097 1.31 1.097 2.342 0 .698-.12 1.265-.358 1.697zM148.031 66.41a5.119 5.119 0 0 0-1.758-1.412c-.704-.35-1.533-.524-2.486-.524-.939 0-1.76.174-2.463.524-.704.349-1.29.824-1.759 1.423a6.244 6.244 0 0 0-1.055 2.11 9.198 9.198 0 0 0-.352 2.594c0 1.107.148 2.071.445 2.9.298.828.7 1.519 1.208 2.071a4.886 4.886 0 0 0 1.783 1.245c.68.274 1.41.42 2.193.437.844 0 1.614-.159 2.31-.475a4.954 4.954 0 0 0 1.782-1.353c.493-.583.872-1.281 1.138-2.094.265-.812.398-1.722.398-2.73 0-.927-.113-1.797-.34-2.605-.227-.814-.574-1.517-1.044-2.112zm-.351 6.69a5.538 5.538 0 0 1-.727 1.707 3.725 3.725 0 0 1-1.279 1.206c-.523.303-1.153.449-1.887.449-.673 0-1.267-.126-1.783-.388a3.535 3.535 0 0 1-1.29-1.095c-.344-.47-.606-1.035-.785-1.693a8.164 8.164 0 0 1-.27-2.157c0-.683.078-1.345.234-1.988.157-.642.4-1.21.727-1.706a3.768 3.768 0 0 1 1.279-1.194c.523-.301 1.153-.453 1.888-.453.75 0 1.383.138 1.9.416a3.54 3.54 0 0 1 1.266 1.135c.328.475.57 1.044.727 1.694.156.646.234 1.348.234 2.094a8.21 8.21 0 0 1-.234 1.974zM161.128 74.86l-2.697-10.386h-1.586l-2.84 10.478-3.17-10.478h-1.42l3.739 12.28h1.704l2.72-10.312h.048l2.674 10.312h1.514l3.975-12.28h-1.443zM177.644 66.263c-.983-1.194-2.335-1.79-4.059-1.79-.901 0-1.707.175-2.415.525a5.303 5.303 0 0 0-1.8 1.436 6.67 6.67 0 0 0-1.135 2.135 8.336 8.336 0 0 0-.399 2.605c0 .929.113 1.794.338 2.598a5.959 5.959 0 0 0 1.04 2.094 4.855 4.855 0 0 0 1.787 1.4c.724.341 1.586.512 2.584.512.79 0 1.482-.104 2.078-.317a4.678 4.678 0 0 0 1.544-.89 5.15 5.15 0 0 0 1.089-1.34c.29-.512.523-1.067.7-1.67h-1.62c-.223.928-.674 1.643-1.35 2.147-.677.504-1.49.754-2.44.754-.693 0-1.305-.13-1.836-.4a3.826 3.826 0 0 1-1.317-1.071 4.708 4.708 0 0 1-.785-1.586 6.884 6.884 0 0 1-.266-1.936h9.711c.016-2.275-.467-4.012-1.45-5.206zm-8.262 3.987c.065-.603.202-1.17.41-1.706.21-.536.488-1.007.834-1.416.347-.404.765-.729 1.256-.973.492-.245 1.06-.37 1.703-.37.645 0 1.216.12 1.716.358.499.234.914.55 1.244.949.33.4.58.87.749 1.412.169.548.251 1.127.251 1.744h-8.163v.002zM182.514 67.035h-.045v-2.24h-1.329v11.96h1.33V70.89c0-.662.055-1.297.166-1.905.11-.608.31-1.135.598-1.582a3.11 3.11 0 0 1 1.163-1.064c.487-.26 1.107-.383 1.86-.367v-1.5c-.96 0-1.731.19-2.315.564-.585.378-1.06 1.043-1.428 1.998zM198.11 66.263c-.983-1.194-2.336-1.79-4.059-1.79-.902 0-1.707.175-2.415.525a5.322 5.322 0 0 0-1.8 1.436 6.67 6.67 0 0 0-1.135 2.135 8.336 8.336 0 0 0-.397 2.605c0 .929.11 1.794.338 2.598.224.803.57 1.5 1.039 2.094a4.855 4.855 0 0 0 1.788 1.4c.726.341 1.586.512 2.584.512.791 0 1.482-.104 2.078-.317a4.688 4.688 0 0 0 1.546-.89 5.143 5.143 0 0 0 1.087-1.34c.29-.512.523-1.067.7-1.67h-1.618c-.226.928-.676 1.643-1.353 2.147-.676.504-1.487.754-2.44.754-.692 0-1.304-.13-1.836-.4a3.826 3.826 0 0 1-1.316-1.071 4.708 4.708 0 0 1-.785-1.586 6.884 6.884 0 0 1-.266-1.936h9.711c.016-2.275-.469-4.012-1.451-5.206zm-8.26 3.987c.063-.603.201-1.17.41-1.706.21-.536.486-1.007.832-1.416.348-.404.767-.729 1.258-.973.491-.245 1.057-.37 1.703-.37.647 0 1.216.12 1.715.358.5.234.916.55 1.247.949.328.4.577.87.746 1.412.17.548.254 1.127.254 1.744h-8.165v.002zM211.45 67.136a4.401 4.401 0 0 0-1.88-1.72 5.666 5.666 0 0 0-2.497-.58c-.932 0-1.74.178-2.425.534a4.96 4.96 0 0 0-1.701 1.424c-.452.591-.785 1.28-1.008 2.073a9.05 9.05 0 0 0-.33 2.465c0 .903.102 1.748.307 2.538.205.787.534 1.47.982 2.049a4.675 4.675 0 0 0 1.715 1.361c.694.332 1.536.498 2.53.498.394 0 .796-.054 1.206-.166.41-.109.808-.267 1.195-.474.384-.206.739-.459 1.062-.769.323-.31.59-.667.793-1.08h.047v2.157h1.42V60.38h-1.42v6.756h.004zm-.272 6.197a5.08 5.08 0 0 1-.793 1.66c-.347.466-.78.833-1.3 1.104-.521.27-1.113.4-1.775.4-.6 0-1.152-.104-1.656-.315a3.867 3.867 0 0 1-1.325-.939 4.405 4.405 0 0 1-.885-1.505c-.213-.595-.32-1.276-.32-2.052a7.96 7.96 0 0 1 .19-2.17c.157-.671.41-1.262.757-1.768a3.758 3.758 0 0 1 1.324-1.195c.539-.292 1.177-.44 1.917-.44.646 0 1.228.138 1.74.417.513.278.945.648 1.302 1.114a5.17 5.17 0 0 1 .816 1.635c.19.62.284 1.28.284 1.98a7.734 7.734 0 0 1-.276 2.074zM232 66.794a4.997 4.997 0 0 0-1.701-1.424c-.689-.356-1.497-.533-2.426-.533-.867 0-1.7.193-2.496.579-.797.389-1.426.96-1.883 1.72V60.38h-1.418v17.066h1.418v-2.157h.047c.205.413.47.772.793 1.08.321.308.678.563 1.065.769.384.207.782.367 1.193.474.41.112.812.166 1.206.166.994 0 1.838-.166 2.532-.498a4.669 4.669 0 0 0 1.714-1.361c.451-.579.779-1.262.982-2.049.205-.79.307-1.635.307-2.538 0-.853-.11-1.675-.33-2.465A5.941 5.941 0 0 0 232 66.794zm-.497 6.946a4.377 4.377 0 0 1-.887 1.505c-.378.41-.82.721-1.325.939a4.246 4.246 0 0 1-1.656.316c-.663 0-1.254-.13-1.773-.401a3.725 3.725 0 0 1-1.301-1.105c-.35-.462-.614-1.019-.793-1.659a7.651 7.651 0 0 1-.274-2.072c0-.7.096-1.36.286-1.98.189-.624.461-1.17.816-1.635a4.013 4.013 0 0 1 1.301-1.114 3.605 3.605 0 0 1 1.74-.417c.725 0 1.36.146 1.904.44.545.295.99.692 1.337 1.195.347.504.602 1.097.76 1.768.157.672.218 1.397.189 2.17-.004.774-.11 1.455-.324 2.05zM241.033 74.567l-4.027-10.091h-1.626l4.877 11.818a4.598 4.598 0 0 0-.389.94 6.848 6.848 0 0 1-.424 1.063 3.03 3.03 0 0 1-.643.871c-.259.244-.59.36-.995.36-.21 0-.414-.014-.618-.043-.205-.028-.4-.058-.595-.092v1.296c.194.044.409.081.643.112.233.03.481.047.738.047.501 0 .936-.112 1.3-.329.364-.221.696-.538.995-.956.297-.414.58-.915.849-1.506.267-.59.546-1.255.837-1.998l4.682-11.585h-1.579l-4.025 10.093zM261.785 70.134h5.81a11.545 11.545 0 0 1-.179 1.79 5.791 5.791 0 0 1-.562 1.63 4.96 4.96 0 0 1-1.03 1.355 5.647 5.647 0 0 1-1.29.897 5.91 5.91 0 0 1-1.434.493 7.42 7.42 0 0 1-1.437.15c-.989 0-1.87-.188-2.643-.553a5.8 5.8 0 0 1-1.959-1.49 6.574 6.574 0 0 1-1.22-2.182 8.126 8.126 0 0 1-.416-2.614c0-1.165.122-2.23.371-3.202.245-.971.634-1.807 1.16-2.503a5.306 5.306 0 0 1 2.009-1.618c.813-.385 1.785-.576 2.917-.576.636 0 1.252.09 1.844.266.587.176 1.122.43 1.6.757.478.33.889.737 1.233 1.226.343.49.584 1.043.728 1.655h1.674c-.192-.89-.502-1.659-.933-2.309a5.966 5.966 0 0 0-1.59-1.63 6.84 6.84 0 0 0-2.129-.975 9.768 9.768 0 0 0-2.544-.32c-1.356 0-2.533.22-3.53.665-.996.445-1.825 1.053-2.487 1.822-.661.773-1.15 1.685-1.469 2.735-.318 1.046-.478 2.175-.478 3.385 0 1.469.187 2.752.56 3.856.375 1.101.899 2.017 1.569 2.742a6.441 6.441 0 0 0 2.389 1.643c.925.365 1.931.549 3.013.549.845 0 1.604-.079 2.274-.228a6.651 6.651 0 0 0 1.77-.658 5.64 5.64 0 0 0 1.353-1.03 8.137 8.137 0 0 0 1.038-1.341v2.82h1.385v-8.535h-7.364v1.328h-.003zM282.028 66.263c-.983-1.194-2.335-1.79-4.059-1.79-.901 0-1.707.175-2.415.525a5.322 5.322 0 0 0-1.8 1.436 6.67 6.67 0 0 0-1.135 2.135 8.336 8.336 0 0 0-.397 2.605c0 .929.11 1.794.338 2.598.224.803.57 1.5 1.04 2.094a4.855 4.855 0 0 0 1.787 1.4c.726.341 1.586.512 2.585.512.79 0 1.481-.104 2.077-.317a4.688 4.688 0 0 0 1.546-.89 5.143 5.143 0 0 0 1.087-1.34c.29-.512.523-1.067.7-1.67h-1.618c-.225.928-.676 1.643-1.353 2.147-.676.504-1.487.754-2.44.754-.692 0-1.304-.13-1.835-.4a3.826 3.826 0 0 1-1.317-1.071 4.708 4.708 0 0 1-.785-1.586 6.884 6.884 0 0 1-.266-1.936h9.711c.014-2.275-.469-4.012-1.451-5.206zm-8.262 3.987c.063-.603.202-1.17.41-1.706.21-.536.486-1.007.832-1.416.349-.404.767-.729 1.258-.973.492-.245 1.057-.37 1.703-.37.647 0 1.216.12 1.716.358.499.234.916.55 1.246.949.328.4.577.87.747 1.412.169.548.253 1.127.253 1.744h-8.165v.002zM295.398 66.41a5.112 5.112 0 0 0-1.757-1.412c-.704-.35-1.534-.524-2.486-.524-.936 0-1.757.174-2.463.524-.705.349-1.29.824-1.759 1.423a6.28 6.28 0 0 0-1.055 2.11 9.269 9.269 0 0 0-.352 2.594c0 1.107.149 2.071.448 2.9.295.828.698 1.519 1.206 2.071a4.886 4.886 0 0 0 1.782 1.245c.68.274 1.413.42 2.193.437.846 0 1.614-.159 2.312-.475a4.97 4.97 0 0 0 1.782-1.353c.493-.583.87-1.281 1.138-2.094.264-.812.397-1.722.397-2.73 0-.927-.116-1.797-.34-2.605-.23-.814-.575-1.517-1.046-2.112zm-.35 6.69a5.538 5.538 0 0 1-.727 1.707 3.743 3.743 0 0 1-1.278 1.206c-.522.303-1.153.449-1.888.449-.674 0-1.265-.126-1.782-.388a3.529 3.529 0 0 1-1.288-1.095c-.346-.47-.608-1.035-.786-1.693a8.244 8.244 0 0 1-.272-2.157c0-.683.08-1.345.237-1.988.154-.642.397-1.21.725-1.706a3.786 3.786 0 0 1 1.278-1.194c.522-.303 1.153-.453 1.888-.453.75 0 1.384.138 1.9.416a3.54 3.54 0 0 1 1.266 1.135c.328.475.57 1.044.727 1.694.155.646.235 1.348.235 2.094 0 .682-.08 1.34-.235 1.974zM306.908 71.112a10.092 10.092 0 0 0-2.007-.624 23.091 23.091 0 0 1-2.006-.5c-.618-.186-1.133-.428-1.542-.728-.41-.3-.615-.733-.615-1.306 0-.65.251-1.174.753-1.57.5-.396 1.229-.599 2.182-.599.953 0 1.742.203 2.37.6.626.395 1.005 1.082 1.14 2.058h1.53c-.184-1.427-.714-2.446-1.592-3.058-.878-.61-2.021-.911-3.425-.911-1.453 0-2.58.337-3.371 1.01-.797.675-1.192 1.54-1.192 2.594 0 .828.205 1.472.615 1.923.41.457.924.804 1.54 1.052.62.241 1.287.424 2.008.548.72.12 1.388.266 2.005.436.62.171 1.134.409 1.542.711.41.297.616.758.616 1.377 0 .308-.069.599-.202.877a2.22 2.22 0 0 1-.59.741 2.81 2.81 0 0 1-.99.524c-.402.13-.878.195-1.432.195-1.135 0-2.008-.221-2.62-.666-.61-.449-1.033-1.218-1.265-2.305h-1.53c.034.603.168 1.162.402 1.682s.56.974.978 1.364c.418.39.921.695 1.519.912.591.221 1.273.329 2.044.329a9.11 9.11 0 0 0 2.121-.23c.642-.154 1.198-.383 1.666-.694.47-.309.836-.695 1.103-1.158.268-.462.401-.994.401-1.593 0-.813-.204-1.448-.616-1.905a4.333 4.333 0 0 0-1.54-1.086zM311.111 64.474h2.047v12.281h-2.047zM311.111 60.38h2.047v2.047h-2.047zM325.302 76.36c-.194-.155-.288-.516-.288-1.087v-6.874c0-.73-.113-1.349-.335-1.853a3.027 3.027 0 0 0-.923-1.207c-.39-.3-.852-.52-1.384-.658a6.711 6.711 0 0 0-1.696-.207c-.646 0-1.258.075-1.835.23a4.356 4.356 0 0 0-1.523.729c-.44.333-.796.766-1.075 1.294-.275.528-.438 1.166-.484 1.912h1.407c.062-.55.189-1.012.38-1.378.193-.365.44-.658.74-.877.3-.22.65-.374 1.051-.466a6.148 6.148 0 0 1 1.316-.134c1.076 0 1.84.242 2.294.721.454.48.68 1.092.68 1.841 0 .226-.028.472-.08.742-.054.27-.196.461-.43.57a3.2 3.2 0 0 1-.886.271c-.361.063-.675.116-.934.146l-1.916.266c-2.784.393-4.176 1.658-4.176 3.806 0 .62.107 1.15.323 1.595.213.449.507.825.875 1.136.37.309.796.536 1.28.682.487.147.99.218 1.514.218.875 0 1.69-.179 2.444-.537a6.043 6.043 0 0 0 2.008-1.56c0 .226.015.445.046.646.03.203.088.388.173.559.084.17.196.317.334.44.139.12.324.2.554.23.2.047.408.071.623.071.2 0 .404-.032.61-.095.208-.067.365-.116.473-.146v-1.138c-.579.23-.967.266-1.16.112zm-1.673-3.572c0 .632-.123 1.182-.369 1.643a3.344 3.344 0 0 1-.98 1.146c-.408.301-.874.525-1.399.67a5.947 5.947 0 0 1-1.615.218 3.57 3.57 0 0 1-.958-.13 2.424 2.424 0 0 1-.83-.416 2.067 2.067 0 0 1-.577-.707 2.2 2.2 0 0 1-.22-1.012c0-.862.297-1.504.89-1.924.591-.425 1.418-.675 2.48-.758.6-.047 1.2-.112 1.8-.195.6-.08 1.194-.25 1.778-.512v1.977zM338.473 66.327a4.704 4.704 0 0 0-1.714-1.357c-.692-.33-1.536-.496-2.529-.496-.396 0-.796.053-1.206.165-.41.108-.808.266-1.194.473-.385.205-.741.46-1.063.778a4.09 4.09 0 0 0-.792 1.066h-.047v-2.151h-1.42V81.87h1.42v-6.786a4.385 4.385 0 0 0 1.88 1.716 5.675 5.675 0 0 0 2.495.577c.932 0 1.74-.177 2.424-.532a4.955 4.955 0 0 0 1.7-1.42c.452-.589.785-1.276 1.008-2.066.223-.79.331-1.608.331-2.459 0-.9-.102-1.743-.307-2.531-.21-.786-.536-1.466-.986-2.043zm-.414 6.383a5.171 5.171 0 0 1-.756 1.763c-.35.504-.793.9-1.339 1.191-.542.292-1.178.436-1.901.436-.647 0-1.228-.134-1.74-.412a4.032 4.032 0 0 1-1.301-1.111 5.15 5.15 0 0 1-.816-1.631 6.713 6.713 0 0 1-.284-1.974c0-.738.09-1.428.272-2.066a5.06 5.06 0 0 1 .792-1.655 3.76 3.76 0 0 1 1.3-1.101c.521-.27 1.112-.404 1.775-.404a4.26 4.26 0 0 1 1.655.32c.505.214.944.527 1.324.935.377.412.674.912.885 1.501.213.593.32 1.273.32 2.047a7.838 7.838 0 0 1-.186 2.16z"/>
  </g>
</svg>
